<?xml version="1.0" encoding="UTF-8" standalone="no"?>
<!-- Created with Inkscape (http://www.inkscape.org/) -->

<svg
   xmlns:dc="http://purl.org/dc/elements/1.1/"
   xmlns:cc="http://creativecommons.org/ns#"
   xmlns:rdf="http://www.w3.org/1999/02/22-rdf-syntax-ns#"
   xmlns:svg="http://www.w3.org/2000/svg"
   xmlns="http://www.w3.org/2000/svg"
   xmlns:xlink="http://www.w3.org/1999/xlink"
   xmlns:sodipodi="http://sodipodi.sourceforge.net/DTD/sodipodi-0.dtd"
   xmlns:inkscape="http://www.inkscape.org/namespaces/inkscape"
   width="35.7663mm"
   height="14.056225mm"
   viewBox="0 0 35.766299 14.056225"
   version="1.1"
   id="svg838"
   inkscape:version="0.92.5 (2060ec1f9f, 2020-04-08)"
   sodipodi:docname="logo.dark.shapes.svg"
   inkscape:export-filename="/home/henning/Projects/capybara-lockstep/media/capybara-lockstep.dark.png"
   inkscape:export-xdpi="196"
   inkscape:export-ydpi="196">
  <defs
     id="defs832">
    <linearGradient
       inkscape:collect="always"
       id="linearGradient1406">
      <stop
         style="stop-color:#ff0844;stop-opacity:1"
         offset="0"
         id="stop1402" />
      <stop
         style="stop-color:#ffb199;stop-opacity:1"
         offset="1"
         id="stop1404" />
    </linearGradient>
    <linearGradient
       inkscape:collect="always"
       xlink:href="#linearGradient1406"
       id="linearGradient1408"
       x1="22.054907"
       y1="91.071762"
       x2="88.956696"
       y2="91.071762"
       gradientUnits="userSpaceOnUse"
       gradientTransform="matrix(0.53371623,0,0,0.08820435,-11.771062,57.908781)" />
  </defs>
  <sodipodi:namedview
     id="base"
     pagecolor="#ffffff"
     bordercolor="#666666"
     borderopacity="1.0"
     inkscape:pageopacity="0.0"
     inkscape:pageshadow="2"
     inkscape:zoom="3.959798"
     inkscape:cx="107.13075"
     inkscape:cy="16.774239"
     inkscape:document-units="mm"
     inkscape:current-layer="layer1"
     showgrid="false"
     fit-margin-top="0"
     fit-margin-left="0"
     fit-margin-right="0"
     fit-margin-bottom="0"
     inkscape:window-width="2560"
     inkscape:window-height="1391"
     inkscape:window-x="1920"
     inkscape:window-y="0"
     inkscape:window-maximized="1"
     inkscape:pagecheckerboard="true" />
  <metadata
     id="metadata835">
    <rdf:RDF>
      <cc:Work
         rdf:about="">
        <dc:format>image/svg+xml</dc:format>
        <dc:type
           rdf:resource="http://purl.org/dc/dcmitype/StillImage" />
        <dc:title></dc:title>
      </cc:Work>
    </rdf:RDF>
  </metadata>
  <g
     inkscape:label="Layer 1"
     inkscape:groupmode="layer"
     id="layer1"
     transform="translate(0.05820833,-52.518951)">
    <g
       aria-label="GEORDI"
       style="font-style:normal;font-variant:normal;font-weight:normal;font-stretch:normal;font-size:10.58333302px;line-height:1.25;font-family:'League Spartan';-inkscape-font-specification:'League Spartan';letter-spacing:0px;word-spacing:0px;fill:#ffffff;fill-opacity:1;stroke:none;stroke-width:0.26458332"
       id="text1385">
      <path
         d="m 3.4766249,55.725701 h 3.5612916 v 0.4445 q 0,0.751417 -0.254,1.402292 -0.2487084,0.650875 -0.714375,1.143 -0.4656667,0.492125 -1.11125,0.767291 -0.6455833,0.275167 -1.4287499,0.275167 -0.809625,0 -1.4710833,-0.275167 -0.6561667,-0.280458 -1.13241666,-0.777875 -0.47624999,-0.497416 -0.73024998,-1.153583 -0.25399999,-0.661458 -0.25399999,-1.418167 0,-0.751416 0.25399999,-1.407583 0.25399999,-0.661458 0.73024998,-1.153583 0.47624996,-0.497417 1.13241666,-0.772584 0.6614583,-0.280458 1.4710833,-0.280458 0.6614583,0 1.1641666,0.142875 0.508,0.142875 0.873125,0.381 0.365125,0.238125 0.6191249,0.523875 0.254,0.280458 0.4233334,0.550333 L 5.1064582,54.826118 Q 4.8894999,54.492743 4.5137915,54.244034 4.1433749,53.995326 3.5295416,53.995326 q -0.428625,0 -0.7884584,0.169333 Q 2.3865416,54.333993 2.1272499,54.630326 1.8679583,54.921368 1.7250833,55.312951 1.5875,55.699243 1.5875,56.133159 q 0,0.439209 0.1375833,0.8255 0.142875,0.386292 0.4021666,0.682625 0.2592917,0.296334 0.6138333,0.465667 0.3598334,0.164042 0.7884584,0.164042 0.3757083,0 0.6826249,-0.09525 0.3069167,-0.09525 0.5291667,-0.275167 0.2275416,-0.179917 0.3545416,-0.423333 0.1322917,-0.248709 0.15875,-0.545042 H 3.4766249 Z"
         style="font-style:normal;font-variant:normal;font-weight:bold;font-stretch:normal;font-family:'League Spartan';-inkscape-font-specification:'League Spartan';fill:#ffffff;fill-opacity:1;stroke-width:0.26458332"
         id="path822" />
      <path
         d="m 7.9427778,52.645951 h 4.4608752 v 1.386417 H 9.5196944 v 1.423458 h 2.8574996 v 1.344083 H 9.5196944 v 1.444625 h 2.8839586 v 1.386417 H 7.9427778 Z"
         style="font-style:normal;font-variant:normal;font-weight:bold;font-stretch:normal;font-family:'League Spartan';-inkscape-font-specification:'League Spartan';fill:#ffffff;fill-opacity:1;stroke-width:0.26458332"
         id="path824" />
      <path
         d="m 15.023009,56.133159 q 0,0.597959 0.243416,1.084792 0.248709,0.481542 0.682625,0.767292 0.439209,0.28575 1.016,0.28575 0.576792,0 1.010709,-0.28575 0.439208,-0.28575 0.682625,-0.767292 0.248708,-0.486833 0.248708,-1.084792 0,-0.597958 -0.248708,-1.0795 -0.243417,-0.481541 -0.682625,-0.767291 -0.433917,-0.291042 -1.010709,-0.291042 -0.576791,0 -1.016,0.291042 -0.433916,0.28575 -0.682625,0.767291 -0.243416,0.481542 -0.243416,1.0795 z m -1.645709,0 q 0,-0.762 0.269875,-1.418166 0.269875,-0.661459 0.756709,-1.153584 0.486833,-0.492125 1.143,-0.767291 0.656166,-0.275167 1.418166,-0.275167 0.772584,0 1.423459,0.275167 0.656166,0.275166 1.137708,0.767291 0.486833,0.492125 0.751417,1.153584 0.269875,0.656166 0.269875,1.418166 0,0.767292 -0.259292,1.42875 -0.259292,0.656167 -0.740833,1.153584 -0.481542,0.492125 -1.137709,0.767291 -0.656166,0.275167 -1.444625,0.275167 -0.804333,0 -1.465791,-0.275167 -0.656167,-0.275166 -1.132417,-0.767291 -0.47625,-0.497417 -0.735542,-1.153584 -0.254,-0.661458 -0.254,-1.42875 z"
         style="font-style:normal;font-variant:normal;font-weight:bold;font-stretch:normal;font-family:'League Spartan';-inkscape-font-specification:'League Spartan';fill:#ffffff;fill-opacity:1;stroke-width:0.26458332"
         id="path826" />
      <path
         d="m 21.42062,52.645951 h 2.846916 q 0.608542,0 1.084792,0.254 0.47625,0.254 0.751417,0.735542 0.280458,0.47625 0.280458,1.137708 0,0.661458 -0.238125,1.084792 -0.232833,0.418041 -0.560917,0.629708 -0.328083,0.206375 -0.608541,0.248708 l 1.698625,2.894542 h -1.778 l -1.513417,-2.772833 h -0.381 v 2.772833 H 21.42062 Z m 1.582208,3.116792 h 0.6985 q 0.423333,0 0.740833,-0.206375 0.3175,-0.206375 0.3175,-0.73025 0,-0.523875 -0.312208,-0.724959 -0.312208,-0.206375 -0.735542,-0.206375 h -0.709083 z"
         style="font-style:normal;font-variant:normal;font-weight:bold;font-stretch:normal;font-family:'League Spartan';-inkscape-font-specification:'League Spartan';fill:#ffffff;fill-opacity:1;stroke-width:0.26458332"
         id="path828" />
      <path
         d="m 27.728279,52.645951 h 2.100792 q 1.116542,0 1.846792,0.449792 0.735541,0.4445 1.100666,1.232958 0.365125,0.788458 0.365125,1.804458 0,1.021292 -0.365125,1.80975 -0.365125,0.788459 -1.100666,1.23825 -0.73025,0.449792 -1.846792,0.449792 h -2.100792 z m 1.576917,1.402292 v 4.180416 h 0.381 q 0.597958,0 0.989542,-0.269875 0.391583,-0.275166 0.587375,-0.746125 0.201083,-0.47625 0.201083,-1.068916 0,-0.597959 -0.195792,-1.068917 -0.1905,-0.47625 -0.587375,-0.751417 -0.396875,-0.275166 -0.994833,-0.275166 z"
         style="font-style:normal;font-variant:normal;font-weight:bold;font-stretch:normal;font-family:'League Spartan';-inkscape-font-specification:'League Spartan';fill:#ffffff;fill-opacity:1;stroke-width:0.26458332"
         id="path830" />
      <path
         d="m 34.125883,52.645951 h 1.582208 v 6.985 h -1.582208 z"
         style="font-style:normal;font-variant:normal;font-weight:bold;font-stretch:normal;font-family:'League Spartan';-inkscape-font-specification:'League Spartan';fill:#ffffff;fill-opacity:1;stroke-width:0.26458332"
         id="path832" />
    </g>
    <rect
       style="fill:url(#linearGradient1408);fill-opacity:1;stroke:none;stroke-width:0.02169702;stroke-miterlimit:4;stroke-dasharray:none;stroke-opacity:1"
       id="rect1387"
       width="35.70657"
       height="1.2668874"
       x="-3.5435547e-15"
       y="65.308289" />
  </g>
</svg>
